
<svg version="1.0" xmlns="http://www.w3.org/2000/svg"
 width="3533.000000pt" height="1006.000000pt" viewBox="0 0 3533.000000 1006.000000"
 preserveAspectRatio="xMidYMid meet">

<g transform="translate(0.000000,1006.000000) scale(0.100000,-0.100000)"
fill="#fff" stroke="none">
<path d="M22435 9449 c-33 -6 -81 -8 -108 -6 -26 2 -82 -4 -125 -14 -42 -11
-88 -19 -100 -19 -13 0 -58 -15 -100 -33 -43 -19 -98 -39 -124 -45 -68 -17
-160 -77 -242 -157 -39 -38 -94 -85 -121 -103 -69 -46 -149 -141 -190 -226
-19 -39 -51 -92 -72 -118 -21 -26 -51 -63 -66 -82 -25 -31 -30 -49 -43 -157
-8 -66 -16 -124 -18 -128 -3 -4 0 -42 6 -84 7 -53 7 -101 -1 -155 -6 -47 -7
-93 -1 -117 5 -22 11 -78 14 -125 3 -49 14 -111 26 -145 11 -33 24 -89 27
-125 8 -89 46 -182 109 -265 29 -39 71 -108 93 -155 21 -47 60 -112 85 -144
26 -32 60 -89 78 -125 17 -36 48 -85 69 -108 22 -23 55 -68 76 -100 20 -32 67
-87 104 -123 36 -36 84 -92 104 -125 21 -33 73 -94 114 -135 42 -41 87 -95
101 -119 14 -25 59 -79 100 -120 42 -42 92 -101 113 -133 44 -67 221 -248 294
-302 29 -20 81 -68 115 -106 35 -38 90 -88 123 -112 33 -25 87 -74 120 -110
33 -36 96 -93 140 -126 44 -33 98 -84 120 -112 22 -29 67 -70 100 -93 33 -22
92 -73 130 -113 39 -41 92 -87 119 -104 27 -18 74 -55 105 -84 31 -29 88 -71
126 -93 39 -23 99 -67 135 -100 36 -32 97 -77 135 -100 39 -23 102 -70 141
-105 40 -34 99 -78 132 -97 33 -18 91 -62 129 -96 37 -34 87 -72 110 -83 23
-12 70 -43 105 -69 35 -27 85 -57 112 -67 26 -10 62 -31 80 -46 17 -15 47 -35
66 -45 19 -10 50 -30 69 -44 19 -14 49 -35 67 -46 35 -21 214 -140 277 -184
40 -28 122 -82 178 -118 19 -11 54 -35 79 -52 25 -17 81 -54 125 -83 44 -28
98 -63 120 -78 61 -41 97 -59 560 -280 292 -139 546 -261 775 -372 158 -76
232 -112 580 -281 226 -109 344 -165 398 -186 26 -10 85 -35 132 -56 150 -65
224 -96 270 -115 25 -10 83 -35 130 -55 47 -21 118 -49 158 -62 l72 -25 102
31 c98 30 116 37 107 44 -19 15 -236 154 -369 237 -91 56 -181 112 -200 125
-19 12 -102 64 -185 115 -164 102 -226 143 -540 365 -115 81 -316 222 -445
313 -129 91 -336 242 -460 335 -124 94 -317 240 -430 326 -218 165 -199 146
-1072 1011 -153 151 -292 282 -310 292 -37 19 -98 80 -306 311 -172 191 -207
230 -248 271 -66 67 -301 334 -340 386 -22 30 -53 72 -70 94 -31 41 -45 60
-111 152 -23 33 -63 86 -88 119 -24 33 -57 78 -71 100 -15 22 -39 54 -53 72
-14 17 -41 53 -60 80 -33 46 -66 91 -149 206 -21 28 -70 95 -109 147 -39 52
-79 113 -89 135 -10 22 -45 68 -76 103 -39 42 -73 95 -105 160 -26 53 -66 123
-90 154 -41 54 -103 171 -103 194 0 7 -21 38 -46 70 -49 63 -93 144 -114 209
-7 22 -32 67 -56 101 -63 88 -102 179 -120 275 -8 46 -30 120 -49 164 -18 44
-40 118 -48 165 -9 47 -27 110 -41 140 -39 85 -56 166 -56 266 0 140 35 254
121 392 7 12 11 23 9 25 -11 11 -210 15 -265 6z m-686 -1036 c26 -24 53 -98
196 -531 128 -386 171 -506 187 -515 11 -7 153 -210 314 -452 262 -394 313
-464 487 -671 258 -307 277 -332 277 -360 0 -25 43 -71 687 -752 196 -207 208
-227 163 -272 -23 -23 -46 -25 -76 -7 -11 7 -206 208 -434 447 -227 239 -420
441 -428 448 -9 6 -26 12 -39 12 -35 0 -78 46 -318 335 -196 235 -243 300
-499 685 -155 234 -292 441 -303 460 -28 47 -363 1066 -363 1105 0 82 90 123
149 68z"/>
<path d="M28475 8789 c-32 -7 -185 -72 -204 -86 -2 -2 4 -12 15 -24 15 -17 26
-19 59 -15 58 9 208 -32 346 -94 218 -99 232 -103 365 -108 117 -4 123 -3 234
33 170 54 220 48 236 -32 6 -28 2 -36 -30 -65 -54 -49 -126 -122 -126 -128 0
-3 107 -6 238 -8 297 -4 347 -11 409 -53 64 -43 102 -78 119 -111 8 -15 27
-34 43 -42 17 -9 35 -31 44 -55 18 -43 47 -66 234 -180 l102 -62 47 16 c75 25
135 -4 154 -75 6 -24 23 -48 44 -64 111 -84 371 -487 451 -696 54 -141 250
-431 354 -521 90 -78 411 -326 462 -357 20 -12 45 -38 54 -58 14 -29 21 -35
38 -30 12 3 27 6 33 6 7 0 30 28 51 63 39 62 40 66 45 178 5 91 11 128 33 184
45 117 46 109 -27 179 -36 34 -86 93 -111 131 -25 39 -73 96 -107 128 -34 32
-77 84 -97 115 -20 31 -68 91 -108 132 -40 41 -89 102 -110 135 -21 33 -60 80
-87 104 -27 24 -74 79 -105 123 -30 43 -77 97 -103 119 -27 23 -68 68 -92 100
-24 33 -59 70 -78 83 -19 13 -60 46 -90 73 -30 28 -71 58 -90 68 -19 10 -61
36 -93 57 -58 39 -149 74 -167 63 -5 -3 -24 -33 -42 -67 -18 -34 -47 -77 -65
-95 -27 -30 -35 -33 -52 -23 -15 7 -21 21 -21 44 0 47 -71 116 -190 186 -118
69 -194 143 -213 207 l-14 47 -129 65 c-169 84 -586 261 -616 261 -7 0 -33 10
-58 21 -24 11 -133 44 -242 74 l-198 54 -252 5 c-155 3 -269 2 -293 -5z"/>
<path d="M27375 8413 c-59 -16 -145 -89 -145 -123 0 -6 -21 -37 -46 -68 -26
-31 -49 -64 -52 -72 -3 -8 -16 -29 -30 -47 -30 -41 -26 -63 20 -88 34 -18 42
-18 125 -6 169 24 164 24 279 -9 60 -17 158 -45 219 -61 60 -17 125 -40 145
-52 19 -11 82 -64 140 -117 58 -53 117 -104 132 -113 29 -18 60 -22 72 -9 4 4
11 7 14 8 4 0 24 11 45 23 40 25 77 90 77 136 0 29 -37 208 -50 240 -4 11 -13
40 -20 65 -10 35 -27 58 -78 105 -36 33 -78 65 -94 72 -15 7 -28 16 -28 21 0
5 -25 26 -55 46 -30 20 -55 33 -55 30 0 -4 -6 -1 -14 6 -15 12 -560 24 -601
13z"/>
<path d="M26989 7763 c-25 -29 -28 -48 -14 -89 13 -38 14 -39 59 -36 44 4 48
1 113 -59 38 -35 84 -78 104 -96 l35 -33 65 19 c35 11 82 23 104 26 71 12 187
48 192 61 6 16 -25 120 -40 132 -14 11 -132 59 -179 73 -20 5 -78 5 -154 -2
-116 -11 -179 -7 -249 16 -14 4 -26 0 -36 -12z"/>
<path d="M30280 7720 c0 -5 5 -10 11 -10 5 0 7 5 4 10 -3 6 -8 10 -11 10 -2 0
-4 -4 -4 -10z"/>
<path d="M26620 7621 c-115 -6 -159 -19 -189 -54 -9 -12 -6 -20 19 -45 41 -41
42 -92 2 -132 l-28 -28 -279 -4 c-162 -3 -291 -10 -306 -16 -28 -11 -138 -97
-260 -202 -83 -71 -191 -191 -258 -285 l-42 -60 83 -7 c45 -4 101 -14 124 -23
47 -18 130 -100 138 -137 3 -12 7 -122 9 -243 3 -219 3 -220 32 -280 26 -53
29 -70 28 -150 0 -53 -9 -129 -22 -185 -12 -52 -26 -129 -32 -170 -18 -126 6
-325 46 -387 10 -14 30 -62 45 -107 55 -162 70 -192 128 -252 73 -76 123 -95
222 -87 l71 6 42 -48 c117 -132 381 -378 501 -468 108 -80 145 -102 209 -122
43 -14 99 -25 125 -25 26 0 67 -5 92 -11 84 -21 225 -29 477 -28 188 0 271 -4
325 -15 78 -16 169 -45 211 -68 40 -20 148 -129 162 -162 12 -29 13 -29 105
-30 88 -1 93 0 114 25 114 141 337 62 324 -115 -2 -28 -21 -126 -43 -218 l-39
-168 25 -52 c51 -110 163 -242 279 -328 78 -57 289 -164 345 -174 22 -4 58
-18 80 -30 22 -13 85 -47 140 -76 55 -29 111 -61 125 -71 14 -10 50 -28 80
-42 94 -42 104 -60 213 -392 49 -150 58 -188 72 -324 9 -85 18 -158 21 -162 7
-12 32 -167 39 -244 8 -85 24 -171 38 -202 13 -30 153 -120 198 -128 22 -4 46
-2 59 5 22 12 23 16 17 104 -10 134 3 196 73 358 51 119 70 152 113 197 29 29
68 63 88 76 28 18 38 32 42 62 5 26 59 118 178 298 95 143 176 275 181 295 19
76 34 121 91 275 79 212 129 323 170 382 50 70 54 81 77 186 11 53 34 134 50
181 24 71 31 114 40 260 7 96 10 244 8 328 l-5 153 -46 85 c-49 91 -62 103
-141 129 -42 15 -67 16 -140 10 -49 -5 -193 -10 -320 -13 -262 -5 -286 -1
-436 65 l-93 41 -236 -7 c-130 -4 -302 -7 -383 -6 -143 2 -151 1 -273 -34 -70
-21 -220 -58 -335 -84 l-208 -47 -97 -92 c-53 -50 -103 -100 -111 -110 -16
-23 -92 -80 -151 -114 -22 -13 -59 -36 -82 -52 -83 -58 -205 -41 -263 37 -27
35 -64 124 -74 175 -5 22 -12 32 -25 32 -25 0 -175 37 -191 47 -7 4 -41 8 -74
9 -79 1 -139 34 -173 94 -20 36 -23 52 -19 111 5 59 3 69 -11 69 -9 0 -33 9
-54 20 -38 21 -73 25 -94 12 -6 -4 -30 -43 -53 -87 -53 -102 -100 -148 -167
-164 -84 -20 -124 -4 -212 87 -134 140 -143 210 -50 398 32 66 53 93 119 152
43 40 98 80 122 91 24 10 50 26 58 36 20 24 88 55 123 55 15 0 41 7 57 15 16
9 50 18 75 21 97 14 198 -71 212 -176 4 -26 13 -44 25 -51 16 -9 19 -20 17
-62 -1 -34 4 -64 15 -85 10 -19 21 -52 24 -75 10 -57 35 -67 169 -70 86 -2
115 2 142 16 23 11 57 17 105 17 71 0 72 0 113 43 59 61 66 79 46 115 -20 36
-80 59 -173 68 -36 4 -70 11 -77 16 -6 5 -17 8 -25 7 -7 -1 -21 1 -31 6 -10 4
-23 2 -31 -4 -8 -7 -18 -11 -22 -10 -5 1 -16 -1 -25 -5 -9 -4 -43 -6 -75 -4
-56 3 -59 4 -62 31 -3 21 6 38 34 69 34 38 35 42 18 51 -70 37 -124 123 -144
231 -16 84 -8 367 14 496 16 97 75 305 112 391 13 32 24 72 24 89 0 31 21 81
45 110 7 8 18 47 25 85 27 142 74 193 189 205 l54 5 12 48 c11 43 11 47 -4 42
-137 -55 -153 -59 -194 -44 -54 19 -82 59 -81 113 1 53 25 90 72 110 76 34 86
41 92 71 4 17 23 60 43 95 63 115 51 187 -36 211 -35 9 -42 8 -63 -12 -32 -30
-105 -35 -223 -15 -193 34 -225 33 -359 -8 -67 -20 -151 -43 -188 -51 -36 -7
-69 -17 -72 -20 -4 -4 -7 -59 -7 -123 0 -114 1 -120 38 -206 30 -68 37 -96 33
-122 -16 -85 -132 -100 -174 -23 -9 18 -34 52 -56 77 l-38 46 -67 -1 c-40 -1
-78 -7 -96 -17 -62 -33 -131 -9 -172 62 l-27 45 18 86 c31 153 117 291 183
291 16 0 32 3 36 6 3 3 -12 29 -34 56 -21 27 -39 58 -39 68 0 11 -10 20 -27
25 -15 3 -52 22 -83 41 -30 19 -67 33 -80 32 -14 -1 -77 -4 -140 -7z"/>
<path d="M28472 7153 c-10 -10 -34 -42 -51 -72 l-33 -54 17 -38 c12 -26 15
-49 11 -74 l-7 -36 38 21 c21 11 47 20 58 20 30 0 83 36 105 72 33 54 2 125
-72 164 -35 18 -42 18 -66 -3z"/>
<path d="M14510 6705 c-373 -34 -606 -100 -845 -243 -155 -93 -269 -224 -433
-497 -126 -211 -231 -708 -232 -1092 0 -139 26 -439 45 -513 74 -290 180 -511
343 -713 202 -253 234 -281 430 -373 259 -123 462 -181 680 -196 156 -11 445
-4 601 13 137 15 307 68 467 144 134 64 142 70 247 173 166 163 347 406 366
493 6 24 24 89 40 144 17 55 31 112 31 127 0 31 -16 37 -215 88 -66 17 -199
52 -295 77 -212 55 -284 72 -287 69 -1 -1 -24 -51 -51 -112 -56 -127 -98 -192
-147 -230 -19 -14 -44 -40 -54 -58 -11 -17 -49 -56 -85 -85 -54 -43 -83 -58
-163 -83 -84 -26 -119 -31 -244 -35 -139 -5 -148 -4 -219 21 -170 61 -258 129
-369 283 -58 80 -122 247 -156 406 -39 180 -19 626 40 898 46 209 227 432 440
542 112 57 281 88 363 67 204 -53 382 -133 421 -190 10 -14 38 -63 62 -110 49
-95 102 -160 130 -160 10 0 46 11 81 24 332 124 689 265 702 276 4 5 -14 55
-41 112 -43 89 -59 112 -112 159 -34 29 -78 79 -96 110 -43 70 -116 144 -188
192 -147 98 -393 207 -512 228 -363 64 -457 69 -745 44z"/>
<path d="M18155 6690 c-38 -4 -119 -8 -180 -9 -241 -3 -442 -39 -569 -102 -75
-37 -236 -158 -274 -205 -47 -59 -111 -165 -161 -269 -49 -99 -78 -213 -97
-375 -11 -99 36 -254 118 -385 20 -33 65 -107 100 -164 86 -142 143 -189 358
-293 159 -77 254 -112 425 -158 183 -48 614 -195 805 -273 100 -41 174 -102
202 -165 25 -56 17 -144 -19 -222 -30 -61 -158 -197 -212 -225 -74 -38 -162
-55 -279 -55 -151 0 -229 19 -387 95 -168 80 -237 145 -314 294 l-51 100 -168
-5 c-92 -3 -210 -9 -262 -15 -130 -14 -340 -57 -367 -75 -31 -20 -30 -82 2
-209 38 -150 119 -292 260 -452 l112 -128 139 -77 c396 -219 496 -250 819
-253 386 -4 574 25 832 131 196 80 291 130 425 224 142 99 193 159 307 357
108 192 116 223 108 488 l-5 200 -42 115 c-53 144 -96 205 -242 345 -89 85
-136 122 -210 163 -107 59 -335 140 -503 178 -60 13 -153 38 -205 55 -52 17
-153 48 -225 69 -71 21 -161 48 -200 60 -38 12 -101 30 -140 41 -86 25 -142
57 -184 105 -43 49 -53 76 -54 160 -1 64 2 76 27 113 43 62 100 109 147 121
25 7 108 11 193 11 192 -1 344 -28 431 -75 318 -173 369 -198 404 -199 20 -1
113 5 206 11 94 7 234 16 312 20 79 5 145 11 148 14 11 11 -36 213 -66 281
-64 146 -132 262 -182 314 -97 100 -287 225 -370 243 -338 75 -367 79 -609 84
-128 2 -264 1 -303 -4z"/>
<path d="M5534 6629 c-17 -5 -37 -15 -43 -23 -12 -15 -14 -197 -25 -2447 -6
-1045 -14 -959 96 -970 35 -4 224 -10 420 -13 383 -7 402 -5 411 42 3 14 -1
330 -8 701 -21 1036 -21 1061 -2 1097 17 34 70 64 110 64 33 0 85 -37 120 -85
16 -22 251 -375 523 -785 723 -1092 657 -997 701 -1004 21 -3 207 -8 414 -12
330 -5 380 -4 406 10 17 8 33 26 37 38 3 13 6 590 6 1283 0 693 5 1442 11
1664 8 328 7 407 -3 417 -17 17 -818 40 -847 24 -23 -12 -27 -63 -36 -375 -34
-1284 -36 -1328 -56 -1371 -11 -22 -31 -46 -45 -52 -33 -15 -96 -15 -130 0
-18 9 -92 110 -237 328 -693 1038 -953 1425 -974 1451 l-25 29 -396 -1 c-219
0 -411 -5 -428 -10z"/>
<path d="M1035 6620 c-401 -3 -731 -6 -731 -8 -1 -1 -9 -13 -18 -27 -15 -23
-17 -152 -17 -1590 0 -1039 4 -1595 11 -1653 14 -113 29 -135 101 -144 273
-34 743 -41 811 -12 35 16 36 18 42 83 3 36 8 323 12 636 7 610 5 595 59 645
l27 25 636 5 637 5 6 45 c7 49 -3 606 -11 613 -3 3 -268 8 -590 12 -322 4
-599 11 -616 16 -44 14 -81 57 -93 109 -5 25 -15 136 -22 247 l-12 202 24 47
c42 84 56 89 242 89 89 0 429 1 755 3 l592 2 -2 317 -3 317 -25 13 c-27 14
-296 14 -1815 3z"/>
<path d="M3598 6607 c-15 -13 -32 -44 -38 -68 -9 -34 -9 -426 -1 -1669 6 -893
15 -1628 19 -1632 9 -9 291 -14 688 -10 l311 2 6 1333 c4 732 10 1492 14 1688
l6 356 -154 6 c-85 4 -305 10 -489 13 l-335 7 -27 -26z"/>
<path d="M10880 6604 c-597 -8 -1137 -18 -1200 -22 l-115 -7 -3 -1672 -2
-1673 22 -4 c13 -3 640 -7 1395 -10 1068 -4 1374 -3 1380 7 32 49 37 105 34
347 -4 295 -4 295 -88 304 -32 3 -283 8 -558 11 -1086 12 -1102 13 -1138 86
-29 60 -39 145 -35 303 3 120 7 158 21 183 27 50 105 119 148 132 29 9 136 11
392 7 194 -3 519 -8 724 -12 l372 -5 16 25 c15 23 16 53 10 283 -3 142 -8 272
-11 289 l-4 31 -768 7 c-459 4 -780 11 -799 17 -40 13 -97 75 -113 123 -9 28
-9 62 -1 139 5 56 13 138 16 182 8 114 21 154 63 194 77 72 33 68 877 77 418
4 765 8 770 9 6 1 30 3 54 3 l44 2 -5 316 c-4 225 -8 318 -17 327 -17 17 -206
17 -1481 1z"/>
<path d="M28805 5042 c-22 -4 -85 -60 -85 -75 0 -6 -8 -16 -17 -23 -16 -12
-17 -15 -3 -40 19 -33 97 -76 126 -68 26 7 64 75 64 115 0 53 -43 100 -85 91z"/>
<path d="M28165 2927 c-17 -13 -17 -14 4 -20 23 -6 39 9 24 24 -5 5 -16 4 -28
-4z"/>
</g>
</svg>
